<svg width="963" height="304" viewBox="0 0 963 304" fill="none" xmlns="http://www.w3.org/2000/svg">
<g filter="url(#filter0_d_6_3)">
<path d="M0 0H950V37C950 81.1828 914.183 117 870 117H0V0Z" fill="#0D63A5"/>
</g>
<g filter="url(#filter1_d_6_3)">
<path d="M0 164H597V201C597 245.183 561.183 281 517 281H0V164Z" fill="#0D63A5"/>
</g>
<path d="M118.422 44.8H121.446L117.918 70H114.894L116.568 58.012H104.094L102.42 70H99.396L102.924 44.8H105.948L104.526 54.988H116.982L118.422 44.8ZM134.218 44.8H137.872L143.506 70H140.302L139.132 64.852H127.342L124.75 70H121.528L134.218 44.8ZM128.872 61.828H138.448L135.496 48.67L128.872 61.828ZM146.787 70L150.315 44.8H153.339L150.225 66.976H161.529L161.097 70H146.787ZM176.335 44.8H179.989L185.623 70H182.419L181.249 64.852H169.459L166.867 70H163.645L176.335 44.8ZM170.989 61.828H180.565L177.613 48.67L170.989 61.828ZM206.671 70.468C205.315 70.468 204.037 70.258 202.837 69.838C201.637 69.406 200.623 68.794 199.795 68.002C198.967 67.21 198.433 66.268 198.193 65.176L201.163 64.114C201.319 64.786 201.685 65.374 202.261 65.878C202.837 66.37 203.551 66.754 204.403 67.03C205.255 67.306 206.155 67.444 207.103 67.444C208.171 67.444 209.197 67.27 210.181 66.922C211.165 66.562 211.987 66.064 212.647 65.428C213.319 64.792 213.715 64.048 213.835 63.196C213.955 62.32 213.751 61.606 213.223 61.054C212.707 60.49 212.005 60.046 211.117 59.722C210.229 59.386 209.287 59.128 208.291 58.948C206.599 58.66 205.099 58.252 203.791 57.724C202.495 57.184 201.511 56.434 200.839 55.474C200.179 54.514 199.957 53.248 200.173 51.676C200.377 50.212 200.983 48.934 201.991 47.842C202.999 46.75 204.241 45.904 205.717 45.304C207.193 44.704 208.735 44.404 210.343 44.404C211.675 44.404 212.935 44.614 214.123 45.034C215.323 45.442 216.343 46.042 217.183 46.834C218.035 47.626 218.593 48.592 218.857 49.732L215.851 50.776C215.707 50.092 215.341 49.504 214.753 49.012C214.177 48.508 213.463 48.124 212.611 47.86C211.759 47.584 210.859 47.446 209.911 47.446C208.855 47.434 207.835 47.608 206.851 47.968C205.867 48.328 205.039 48.826 204.367 49.462C203.707 50.098 203.317 50.836 203.197 51.676C203.065 52.684 203.227 53.458 203.683 53.998C204.151 54.526 204.829 54.922 205.717 55.186C206.605 55.45 207.607 55.684 208.723 55.888C210.319 56.164 211.771 56.602 213.079 57.202C214.387 57.79 215.395 58.576 216.103 59.56C216.811 60.544 217.063 61.756 216.859 63.196C216.655 64.66 216.049 65.938 215.041 67.03C214.045 68.122 212.809 68.968 211.333 69.568C209.857 70.168 208.303 70.468 206.671 70.468ZM220.193 70L223.721 44.8H232.037C233.393 44.8 234.569 45.13 235.565 45.79C236.561 46.45 237.299 47.344 237.779 48.472C238.271 49.588 238.415 50.836 238.211 52.216C238.019 53.62 237.515 54.886 236.699 56.014C235.883 57.13 234.881 58.018 233.693 58.678C232.505 59.326 231.257 59.65 229.949 59.65H224.657L223.217 70H220.193ZM225.089 56.626H230.093C230.909 56.626 231.683 56.428 232.415 56.032C233.159 55.624 233.783 55.078 234.287 54.394C234.791 53.698 235.097 52.918 235.205 52.054C235.337 51.178 235.247 50.398 234.935 49.714C234.635 49.018 234.173 48.472 233.549 48.076C232.925 47.668 232.205 47.464 231.389 47.464H226.385L225.089 56.626ZM250.946 70.468C249.242 70.468 247.682 70.132 246.266 69.46C244.862 68.776 243.674 67.834 242.702 66.634C241.742 65.434 241.046 64.048 240.614 62.476C240.194 60.892 240.11 59.2 240.362 57.4C240.614 55.6 241.172 53.914 242.036 52.342C242.9 50.758 243.986 49.366 245.294 48.166C246.614 46.966 248.072 46.03 249.668 45.358C251.264 44.674 252.914 44.332 254.618 44.332C256.334 44.332 257.894 44.674 259.298 45.358C260.702 46.03 261.884 46.966 262.844 48.166C263.816 49.366 264.512 50.758 264.932 52.342C265.364 53.914 265.454 55.6 265.202 57.4C264.95 59.2 264.392 60.892 263.528 62.476C262.664 64.048 261.572 65.434 260.252 66.634C258.944 67.834 257.492 68.776 255.896 69.46C254.312 70.132 252.662 70.468 250.946 70.468ZM251.36 67.444C252.668 67.444 253.922 67.18 255.122 66.652C256.334 66.124 257.432 65.398 258.416 64.474C259.412 63.538 260.24 62.47 260.9 61.27C261.56 60.058 261.986 58.768 262.178 57.4C262.37 56.032 262.304 54.742 261.98 53.53C261.668 52.306 261.146 51.238 260.414 50.326C259.694 49.402 258.8 48.676 257.732 48.148C256.676 47.62 255.5 47.356 254.204 47.356C252.896 47.356 251.636 47.62 250.424 48.148C249.224 48.676 248.126 49.408 247.13 50.344C246.146 51.268 245.324 52.336 244.664 53.548C244.004 54.748 243.578 56.032 243.386 57.4C243.194 58.78 243.254 60.076 243.566 61.288C243.89 62.5 244.412 63.568 245.132 64.492C245.864 65.416 246.758 66.142 247.814 66.67C248.882 67.186 250.064 67.444 251.36 67.444ZM266.986 70L270.514 44.8H279.37C280.714 44.8 281.884 45.13 282.88 45.79C283.876 46.45 284.614 47.344 285.094 48.472C285.574 49.588 285.718 50.836 285.526 52.216C285.37 53.428 284.98 54.532 284.356 55.528C283.732 56.524 282.952 57.358 282.016 58.03C281.092 58.69 280.078 59.146 278.974 59.398L283.636 70H280.144L275.59 59.65H271.45L270.01 70H266.986ZM271.882 56.626H277.408C278.224 56.626 278.998 56.428 279.73 56.032C280.474 55.624 281.098 55.078 281.602 54.394C282.106 53.698 282.418 52.918 282.538 52.054C282.67 51.178 282.58 50.398 282.268 49.714C281.956 49.018 281.488 48.472 280.864 48.076C280.24 47.668 279.52 47.464 278.704 47.464H273.178L271.882 56.626ZM309.615 44.8L309.183 47.824H300.795L297.699 70H294.675L297.771 47.824H289.419L289.833 44.8H309.615ZM319.887 70.468C318.183 70.468 316.623 70.132 315.207 69.46C313.803 68.776 312.615 67.834 311.643 66.634C310.683 65.434 309.987 64.048 309.555 62.476C309.135 60.892 309.051 59.2 309.303 57.4C309.555 55.6 310.113 53.914 310.977 52.342C311.841 50.758 312.927 49.366 314.235 48.166C315.555 46.966 317.013 46.03 318.609 45.358C320.205 44.674 321.855 44.332 323.559 44.332C325.275 44.332 326.835 44.674 328.239 45.358C329.643 46.03 330.825 46.966 331.785 48.166C332.757 49.366 333.453 50.758 333.873 52.342C334.305 53.914 334.395 55.6 334.143 57.4C333.891 59.2 333.333 60.892 332.469 62.476C331.605 64.048 330.513 65.434 329.193 66.634C327.885 67.834 326.433 68.776 324.837 69.46C323.253 70.132 321.603 70.468 319.887 70.468ZM320.301 67.444C321.609 67.444 322.863 67.18 324.063 66.652C325.275 66.124 326.373 65.398 327.357 64.474C328.353 63.538 329.181 62.47 329.841 61.27C330.501 60.058 330.927 58.768 331.119 57.4C331.311 56.032 331.245 54.742 330.921 53.53C330.609 52.306 330.087 51.238 329.355 50.326C328.635 49.402 327.741 48.676 326.673 48.148C325.617 47.62 324.441 47.356 323.145 47.356C321.837 47.356 320.577 47.62 319.365 48.148C318.165 48.676 317.067 49.408 316.071 50.344C315.087 51.268 314.265 52.336 313.605 53.548C312.945 54.748 312.519 56.032 312.327 57.4C312.135 58.78 312.195 60.076 312.507 61.288C312.831 62.5 313.353 63.568 314.073 64.492C314.805 65.416 315.699 66.142 316.755 66.67C317.823 67.186 319.005 67.444 320.301 67.444ZM340.586 70L337.67 44.8H340.784L343.088 64.69L350.918 44.8H353.636L355.94 64.69L363.77 44.8H366.884L356.948 70H353.42L351.314 51.748L344.096 70H340.586ZM375.389 44.8H379.043L384.677 70H381.473L380.303 64.852H368.513L365.921 70H362.699L375.389 44.8ZM370.043 61.828H379.619L376.667 48.67L370.043 61.828ZM406.715 70.468C404.699 70.468 403.019 69.976 401.675 68.992C400.343 68.008 399.389 66.688 398.813 65.032C398.249 63.364 398.111 61.516 398.399 59.488L400.451 44.8H403.475L401.423 59.488C401.219 60.928 401.297 62.254 401.657 63.466C402.017 64.678 402.653 65.644 403.565 66.364C404.477 67.084 405.671 67.444 407.147 67.444C408.623 67.444 409.919 67.084 411.035 66.364C412.151 65.632 413.051 64.666 413.735 63.466C414.431 62.254 414.881 60.928 415.085 59.488L417.137 44.8H420.161L418.109 59.488C417.893 61.012 417.461 62.44 416.813 63.772C416.177 65.092 415.355 66.256 414.347 67.264C413.351 68.272 412.205 69.058 410.909 69.622C409.625 70.186 408.227 70.468 406.715 70.468ZM420.724 70L424.252 44.8H427.276L424.162 66.976H435.466L435.034 70H420.724ZM439.851 70.468C439.395 70.468 439.029 70.306 438.753 69.982C438.489 69.658 438.387 69.262 438.447 68.794C438.507 68.35 438.717 67.966 439.077 67.642C439.449 67.318 439.869 67.156 440.337 67.156C440.805 67.156 441.177 67.318 441.453 67.642C441.729 67.966 441.831 68.35 441.759 68.794C441.699 69.262 441.483 69.658 441.111 69.982C440.739 70.306 440.319 70.468 439.851 70.468ZM466.172 70.468C464.468 70.468 462.914 70.132 461.51 69.46C460.106 68.776 458.918 67.84 457.946 66.652C456.986 65.452 456.296 64.06 455.876 62.476C455.456 60.892 455.372 59.2 455.624 57.4C455.876 55.6 456.434 53.908 457.298 52.324C458.162 50.74 459.242 49.354 460.538 48.166C461.846 46.966 463.298 46.03 464.894 45.358C466.49 44.674 468.14 44.332 469.844 44.332C471.884 44.332 473.69 44.806 475.262 45.754C476.846 46.702 478.094 47.962 479.006 49.534L476.126 50.974C475.442 49.87 474.506 48.994 473.318 48.346C472.142 47.686 470.846 47.356 469.43 47.356C468.122 47.356 466.862 47.62 465.65 48.148C464.45 48.676 463.358 49.402 462.374 50.326C461.39 51.25 460.568 52.318 459.908 53.53C459.26 54.742 458.84 56.032 458.648 57.4C458.456 58.78 458.516 60.076 458.828 61.288C459.14 62.5 459.656 63.568 460.376 64.492C461.108 65.416 462.002 66.142 463.058 66.67C464.126 67.186 465.302 67.444 466.586 67.444C468.062 67.444 469.472 67.114 470.816 66.454C472.172 65.782 473.342 64.906 474.326 63.826L476.792 65.284C475.448 66.856 473.852 68.116 472.004 69.064C470.156 70 468.212 70.468 466.172 70.468ZM498.813 44.8H501.837L498.309 70H495.285L496.959 58.012H484.485L482.811 70H479.787L483.315 44.8H486.339L484.917 54.988H497.373L498.813 44.8ZM514.266 70.468C512.562 70.468 511.002 70.132 509.586 69.46C508.182 68.776 506.994 67.834 506.022 66.634C505.062 65.434 504.366 64.048 503.934 62.476C503.514 60.892 503.43 59.2 503.682 57.4C503.934 55.6 504.492 53.914 505.356 52.342C506.22 50.758 507.306 49.366 508.614 48.166C509.934 46.966 511.392 46.03 512.988 45.358C514.584 44.674 516.234 44.332 517.938 44.332C519.654 44.332 521.214 44.674 522.618 45.358C524.022 46.03 525.204 46.966 526.164 48.166C527.136 49.366 527.832 50.758 528.252 52.342C528.684 53.914 528.774 55.6 528.522 57.4C528.27 59.2 527.712 60.892 526.848 62.476C525.984 64.048 524.892 65.434 523.572 66.634C522.264 67.834 520.812 68.776 519.216 69.46C517.632 70.132 515.982 70.468 514.266 70.468ZM514.68 67.444C515.988 67.444 517.242 67.18 518.442 66.652C519.654 66.124 520.752 65.398 521.736 64.474C522.732 63.538 523.56 62.47 524.22 61.27C524.88 60.058 525.306 58.768 525.498 57.4C525.69 56.032 525.624 54.742 525.3 53.53C524.988 52.306 524.466 51.238 523.734 50.326C523.014 49.402 522.12 48.676 521.052 48.148C519.996 47.62 518.82 47.356 517.524 47.356C516.216 47.356 514.956 47.62 513.744 48.148C512.544 48.676 511.446 49.408 510.45 50.344C509.466 51.268 508.644 52.336 507.984 53.548C507.324 54.748 506.898 56.032 506.706 57.4C506.514 58.78 506.574 60.076 506.886 61.288C507.21 62.5 507.732 63.568 508.452 64.492C509.184 65.416 510.078 66.142 511.134 66.67C512.202 67.186 513.384 67.444 514.68 67.444ZM530.306 70L533.834 44.8H542.69C544.034 44.8 545.204 45.13 546.2 45.79C547.196 46.45 547.934 47.344 548.414 48.472C548.894 49.588 549.038 50.836 548.846 52.216C548.69 53.428 548.3 54.532 547.676 55.528C547.052 56.524 546.272 57.358 545.336 58.03C544.412 58.69 543.398 59.146 542.294 59.398L546.956 70H543.464L538.91 59.65H534.77L533.33 70H530.306ZM535.202 56.626H540.728C541.544 56.626 542.318 56.428 543.05 56.032C543.794 55.624 544.418 55.078 544.922 54.394C545.426 53.698 545.738 52.918 545.858 52.054C545.99 51.178 545.9 50.398 545.588 49.714C545.276 49.018 544.808 48.472 544.184 48.076C543.56 47.668 542.84 47.464 542.024 47.464H536.498L535.202 56.626ZM550.117 70L550.531 66.976L569.539 47.824H553.231L553.645 44.8H574.021L573.607 47.824L554.599 66.976H570.907L570.493 70H550.117ZM585.071 70.468C583.367 70.468 581.807 70.132 580.391 69.46C578.987 68.776 577.799 67.834 576.827 66.634C575.867 65.434 575.171 64.048 574.739 62.476C574.319 60.892 574.235 59.2 574.487 57.4C574.739 55.6 575.297 53.914 576.161 52.342C577.025 50.758 578.111 49.366 579.419 48.166C580.739 46.966 582.197 46.03 583.793 45.358C585.389 44.674 587.039 44.332 588.743 44.332C590.459 44.332 592.019 44.674 593.423 45.358C594.827 46.03 596.009 46.966 596.969 48.166C597.941 49.366 598.637 50.758 599.057 52.342C599.489 53.914 599.579 55.6 599.327 57.4C599.075 59.2 598.517 60.892 597.653 62.476C596.789 64.048 595.697 65.434 594.377 66.634C593.069 67.834 591.617 68.776 590.021 69.46C588.437 70.132 586.787 70.468 585.071 70.468ZM585.485 67.444C586.793 67.444 588.047 67.18 589.247 66.652C590.459 66.124 591.557 65.398 592.541 64.474C593.537 63.538 594.365 62.47 595.025 61.27C595.685 60.058 596.111 58.768 596.303 57.4C596.495 56.032 596.429 54.742 596.105 53.53C595.793 52.306 595.271 51.238 594.539 50.326C593.819 49.402 592.925 48.676 591.857 48.148C590.801 47.62 589.625 47.356 588.329 47.356C587.021 47.356 585.761 47.62 584.549 48.148C583.349 48.676 582.251 49.408 581.255 50.344C580.271 51.268 579.449 52.336 578.789 53.548C578.129 54.748 577.703 56.032 577.511 57.4C577.319 58.78 577.379 60.076 577.691 61.288C578.015 62.5 578.537 63.568 579.257 64.492C579.989 65.416 580.883 66.142 581.939 66.67C583.007 67.186 584.189 67.444 585.485 67.444ZM605.77 70L602.854 44.8H605.968L608.272 64.69L616.102 44.8H618.82L621.124 64.69L628.954 44.8H632.068L622.132 70H618.604L616.498 51.748L609.28 70H605.77ZM640.042 70.468C638.686 70.468 637.408 70.258 636.208 69.838C635.008 69.406 633.994 68.794 633.166 68.002C632.338 67.21 631.804 66.268 631.564 65.176L634.534 64.114C634.69 64.786 635.056 65.374 635.632 65.878C636.208 66.37 636.922 66.754 637.774 67.03C638.626 67.306 639.526 67.444 640.474 67.444C641.542 67.444 642.568 67.27 643.552 66.922C644.536 66.562 645.358 66.064 646.018 65.428C646.69 64.792 647.086 64.048 647.206 63.196C647.326 62.32 647.122 61.606 646.594 61.054C646.078 60.49 645.376 60.046 644.488 59.722C643.6 59.386 642.658 59.128 641.662 58.948C639.97 58.66 638.47 58.252 637.162 57.724C635.866 57.184 634.882 56.434 634.21 55.474C633.55 54.514 633.328 53.248 633.544 51.676C633.748 50.212 634.354 48.934 635.362 47.842C636.37 46.75 637.612 45.904 639.088 45.304C640.564 44.704 642.106 44.404 643.714 44.404C645.046 44.404 646.306 44.614 647.494 45.034C648.694 45.442 649.714 46.042 650.554 46.834C651.406 47.626 651.964 48.592 652.228 49.732L649.222 50.776C649.078 50.092 648.712 49.504 648.124 49.012C647.548 48.508 646.834 48.124 645.982 47.86C645.13 47.584 644.23 47.446 643.282 47.446C642.226 47.434 641.206 47.608 640.222 47.968C639.238 48.328 638.41 48.826 637.738 49.462C637.078 50.098 636.688 50.836 636.568 51.676C636.436 52.684 636.598 53.458 637.054 53.998C637.522 54.526 638.2 54.922 639.088 55.186C639.976 55.45 640.978 55.684 642.094 55.888C643.69 56.164 645.142 56.602 646.45 57.202C647.758 57.79 648.766 58.576 649.474 59.56C650.182 60.544 650.434 61.756 650.23 63.196C650.026 64.66 649.42 65.938 648.412 67.03C647.416 68.122 646.18 68.968 644.704 69.568C643.228 70.168 641.674 70.468 640.042 70.468ZM670.34 70H666.434L660.008 59.074L657.794 61.342L656.588 70H653.564L657.092 44.8H660.116L658.442 56.644L670.034 44.8H673.976L662.33 56.698L670.34 70ZM685.011 44.8H688.665L694.299 70H691.095L689.925 64.852H678.135L675.543 70H672.321L685.011 44.8ZM679.665 61.828H689.241L686.289 48.67L679.665 61.828ZM713.942 70.468C712.382 70.468 711.02 70.09 709.856 69.334C708.704 68.578 707.846 67.57 707.282 66.31C706.718 65.038 706.538 63.64 706.742 62.116H709.766C709.634 63.088 709.748 63.982 710.108 64.798C710.468 65.602 711.02 66.244 711.764 66.724C712.508 67.204 713.372 67.444 714.356 67.444C715.328 67.444 716.252 67.204 717.128 66.724C718.004 66.244 718.736 65.602 719.324 64.798C719.924 63.982 720.29 63.088 720.422 62.116C720.566 61.144 720.464 60.25 720.116 59.434C719.78 58.618 719.216 57.97 718.424 57.49C717.632 56.998 716.624 56.752 715.4 56.752H709.172L713.294 44.8H725.246L724.832 47.824H715.328L713.312 53.728L715.94 53.746C717.656 53.782 719.108 54.166 720.296 54.898C721.496 55.618 722.378 56.602 722.942 57.85C723.506 59.086 723.674 60.508 723.446 62.116C723.29 63.256 722.924 64.336 722.348 65.356C721.772 66.364 721.046 67.252 720.17 68.02C719.294 68.788 718.322 69.388 717.254 69.82C716.198 70.252 715.094 70.468 713.942 70.468ZM725.646 72.016L727.608 65.932H730.632L727.662 72.016H725.646ZM754.647 70.468C752.907 70.468 751.329 70.132 749.913 69.46C748.509 68.776 747.327 67.834 746.367 66.634C745.419 65.422 744.735 64.03 744.315 62.458C743.907 60.874 743.829 59.182 744.081 57.382C744.333 55.522 744.903 53.8 745.791 52.216C746.679 50.632 747.783 49.252 749.103 48.076C750.435 46.9 751.893 45.988 753.477 45.34C755.073 44.68 756.705 44.35 758.373 44.35C760.269 44.35 762.009 44.794 763.593 45.682C765.189 46.57 766.491 47.854 767.499 49.534L764.583 50.992C763.815 49.816 762.843 48.916 761.667 48.292C760.503 47.668 759.255 47.356 757.923 47.356C756.651 47.356 755.409 47.614 754.197 48.13C752.985 48.646 751.881 49.366 750.885 50.29C749.889 51.214 749.055 52.282 748.383 53.494C747.723 54.706 747.297 56.02 747.105 57.436C746.913 58.816 746.973 60.112 747.285 61.324C747.609 62.536 748.131 63.604 748.851 64.528C749.583 65.44 750.483 66.154 751.551 66.67C752.619 67.186 753.801 67.444 755.097 67.444C756.129 67.444 757.137 67.27 758.121 66.922C759.105 66.574 760.029 66.082 760.893 65.446C761.757 64.81 762.531 64.06 763.215 63.196C763.899 62.332 764.457 61.384 764.889 60.352H758.697L759.075 57.652H768.831C768.555 59.416 767.979 61.072 767.103 62.62C766.239 64.168 765.159 65.53 763.863 66.706C762.567 67.882 761.127 68.806 759.543 69.478C757.971 70.138 756.339 70.468 754.647 70.468ZM770.634 70L774.162 44.8H777.186L774.072 66.976H785.376L784.944 70H770.634ZM789.456 70L792.984 44.8H796.008L792.48 70H789.456ZM803.067 70L800.151 44.8H803.265L805.569 64.69L813.399 44.8H816.117L818.421 64.69L826.251 44.8H829.365L819.429 70H815.901L813.795 51.748L806.577 70H803.067ZM829.639 70L833.167 44.8H836.191L832.663 70H829.639ZM849.129 70.468C847.425 70.468 845.871 70.132 844.467 69.46C843.063 68.776 841.875 67.84 840.903 66.652C839.943 65.452 839.253 64.06 838.833 62.476C838.413 60.892 838.329 59.2 838.581 57.4C838.833 55.6 839.391 53.908 840.255 52.324C841.119 50.74 842.199 49.354 843.495 48.166C844.803 46.966 846.255 46.03 847.851 45.358C849.447 44.674 851.097 44.332 852.801 44.332C854.841 44.332 856.647 44.806 858.219 45.754C859.803 46.702 861.051 47.962 861.963 49.534L859.083 50.974C858.399 49.87 857.463 48.994 856.275 48.346C855.099 47.686 853.803 47.356 852.387 47.356C851.079 47.356 849.819 47.62 848.607 48.148C847.407 48.676 846.315 49.402 845.331 50.326C844.347 51.25 843.525 52.318 842.865 53.53C842.217 54.742 841.797 56.032 841.605 57.4C841.413 58.78 841.473 60.076 841.785 61.288C842.097 62.5 842.613 63.568 843.333 64.492C844.065 65.416 844.959 66.142 846.015 66.67C847.083 67.186 848.259 67.444 849.543 67.444C851.019 67.444 852.429 67.114 853.773 66.454C855.129 65.782 856.299 64.906 857.283 63.826L859.749 65.284C858.405 66.856 856.809 68.116 854.961 69.064C853.113 70 851.169 70.468 849.129 70.468ZM862.744 70L866.272 44.8H881.734L881.32 47.824H868.882L867.874 54.988H878.062L877.648 58.012H867.442L866.182 66.976H878.62L878.206 70H862.744Z" fill="#FFF0CE"/>
<path d="M101.502 235L104.616 212.824H101.79L103.05 209.8H108.054L104.526 235H101.502ZM111.662 235L114.776 212.824H111.95L113.21 209.8H118.214L114.686 235H111.662ZM128.365 235L136.771 209.8H139.093L143.395 227.692L152.683 209.8H155.005L156.373 235H153.295L152.323 216.712L143.539 233.632H141.559L137.527 216.712L131.443 235H128.365ZM171.096 209.8H174.75L180.384 235H177.18L176.01 229.852H164.22L161.628 235H158.406L171.096 209.8ZM165.75 226.828H175.326L172.374 213.67L165.75 226.828ZM186.64 235.468C185.8 235.468 184.996 235.324 184.228 235.036C183.46 234.76 182.788 234.34 182.212 233.776L184.48 231.436C184.78 231.736 185.146 231.982 185.578 232.174C186.022 232.354 186.514 232.444 187.054 232.444C187.846 232.444 188.596 232.234 189.304 231.814C190.024 231.394 190.624 230.842 191.104 230.158C191.584 229.474 191.884 228.742 192.004 227.962L194.542 209.8H197.566L195.01 227.962C194.83 229.306 194.326 230.548 193.498 231.688C192.682 232.816 191.674 233.728 190.474 234.424C189.274 235.12 187.996 235.468 186.64 235.468ZM210.331 209.8H213.985L219.619 235H216.415L215.245 229.852H203.455L200.863 235H197.641L210.331 209.8ZM204.985 226.828H214.561L211.609 213.67L204.985 226.828ZM231.145 235L231.505 232.318C232.561 231.49 233.737 230.566 235.033 229.546C236.329 228.514 237.625 227.44 238.921 226.324C240.229 225.196 241.441 224.08 242.557 222.976C243.673 221.872 244.591 220.828 245.311 219.844C246.043 218.848 246.463 217.978 246.571 217.234C246.691 216.346 246.583 215.536 246.247 214.804C245.923 214.06 245.425 213.466 244.753 213.022C244.093 212.578 243.319 212.356 242.431 212.356C241.543 212.356 240.697 212.578 239.893 213.022C239.101 213.466 238.435 214.06 237.895 214.804C237.355 215.536 237.019 216.346 236.887 217.234H233.863C234.079 215.758 234.625 214.426 235.501 213.238C236.389 212.038 237.475 211.09 238.759 210.394C240.055 209.686 241.423 209.332 242.863 209.332C244.303 209.332 245.563 209.686 246.643 210.394C247.735 211.102 248.551 212.056 249.091 213.256C249.631 214.444 249.799 215.77 249.595 217.234C249.475 218.074 249.139 218.98 248.587 219.952C248.047 220.912 247.351 221.902 246.499 222.922C245.659 223.942 244.711 224.974 243.655 226.018C242.599 227.05 241.507 228.07 240.379 229.078C239.251 230.086 238.129 231.052 237.013 231.976H247.831L247.417 235H231.145ZM259.364 235.468C257.864 235.468 256.562 235.132 255.458 234.46C254.366 233.776 253.478 232.834 252.794 231.634C252.122 230.434 251.672 229.048 251.444 227.476C251.228 225.892 251.246 224.2 251.498 222.4C251.75 220.6 252.206 218.908 252.866 217.324C253.538 215.74 254.384 214.354 255.404 213.166C256.424 211.966 257.576 211.03 258.86 210.358C260.144 209.674 261.536 209.332 263.036 209.332C264.524 209.332 265.814 209.674 266.906 210.358C268.01 211.03 268.892 211.966 269.552 213.166C270.224 214.354 270.674 215.74 270.902 217.324C271.13 218.908 271.118 220.6 270.866 222.4C270.614 224.2 270.152 225.892 269.48 227.476C268.808 229.048 267.968 230.434 266.96 231.634C265.964 232.834 264.818 233.776 263.522 234.46C262.238 235.132 260.852 235.468 259.364 235.468ZM259.778 232.444C261.29 232.444 262.616 231.982 263.756 231.058C264.896 230.122 265.826 228.892 266.546 227.368C267.266 225.844 267.752 224.188 268.004 222.4C268.28 220.516 268.262 218.818 267.95 217.306C267.638 215.782 267.032 214.576 266.132 213.688C265.244 212.8 264.068 212.356 262.604 212.356C261.452 212.356 260.408 212.626 259.472 213.166C258.548 213.706 257.732 214.444 257.024 215.38C256.328 216.316 255.758 217.39 255.314 218.602C254.87 219.802 254.552 221.068 254.36 222.4C254.108 224.188 254.132 225.85 254.432 227.386C254.732 228.91 255.32 230.134 256.196 231.058C257.084 231.982 258.278 232.444 259.778 232.444ZM271.61 235L271.97 232.318C273.026 231.49 274.202 230.566 275.498 229.546C276.794 228.514 278.09 227.44 279.386 226.324C280.694 225.196 281.906 224.08 283.022 222.976C284.138 221.872 285.056 220.828 285.776 219.844C286.508 218.848 286.928 217.978 287.036 217.234C287.156 216.346 287.048 215.536 286.712 214.804C286.388 214.06 285.89 213.466 285.218 213.022C284.558 212.578 283.784 212.356 282.896 212.356C282.008 212.356 281.162 212.578 280.358 213.022C279.566 213.466 278.9 214.06 278.36 214.804C277.82 215.536 277.484 216.346 277.352 217.234H274.328C274.544 215.758 275.09 214.426 275.966 213.238C276.854 212.038 277.94 211.09 279.224 210.394C280.52 209.686 281.888 209.332 283.328 209.332C284.768 209.332 286.028 209.686 287.108 210.394C288.2 211.102 289.016 212.056 289.556 213.256C290.096 214.444 290.264 215.77 290.06 217.234C289.94 218.074 289.604 218.98 289.052 219.952C288.512 220.912 287.816 221.902 286.964 222.922C286.124 223.942 285.176 224.974 284.12 226.018C283.064 227.05 281.972 228.07 280.844 229.078C279.716 230.086 278.594 231.052 277.478 231.976H288.296L287.882 235H271.61ZM301.219 235L302.173 228.196H291.337L291.769 225.136L303.991 209.8H307.771L305.611 225.172H308.131L307.699 228.196H305.197L304.243 235H301.219ZM295.315 225.136L302.587 225.172L304.117 214.048L295.315 225.136ZM328.522 235.468C327.166 235.468 325.888 235.258 324.688 234.838C323.488 234.406 322.474 233.794 321.646 233.002C320.818 232.21 320.284 231.268 320.044 230.176L323.014 229.114C323.17 229.786 323.536 230.374 324.112 230.878C324.688 231.37 325.402 231.754 326.254 232.03C327.106 232.306 328.006 232.444 328.954 232.444C330.022 232.444 331.048 232.27 332.032 231.922C333.016 231.562 333.838 231.064 334.498 230.428C335.17 229.792 335.566 229.048 335.686 228.196C335.806 227.32 335.602 226.606 335.074 226.054C334.558 225.49 333.856 225.046 332.968 224.722C332.08 224.386 331.138 224.128 330.142 223.948C328.45 223.66 326.95 223.252 325.642 222.724C324.346 222.184 323.362 221.434 322.69 220.474C322.03 219.514 321.808 218.248 322.024 216.676C322.228 215.212 322.834 213.934 323.842 212.842C324.85 211.75 326.092 210.904 327.568 210.304C329.044 209.704 330.586 209.404 332.194 209.404C333.526 209.404 334.786 209.614 335.974 210.034C337.174 210.442 338.194 211.042 339.034 211.834C339.886 212.626 340.444 213.592 340.708 214.732L337.702 215.776C337.558 215.092 337.192 214.504 336.604 214.012C336.028 213.508 335.314 213.124 334.462 212.86C333.61 212.584 332.71 212.446 331.762 212.446C330.706 212.434 329.686 212.608 328.702 212.968C327.718 213.328 326.89 213.826 326.218 214.462C325.558 215.098 325.168 215.836 325.048 216.676C324.916 217.684 325.078 218.458 325.534 218.998C326.002 219.526 326.68 219.922 327.568 220.186C328.456 220.45 329.458 220.684 330.574 220.888C332.17 221.164 333.622 221.602 334.93 222.202C336.238 222.79 337.246 223.576 337.954 224.56C338.662 225.544 338.914 226.756 338.71 228.196C338.506 229.66 337.9 230.938 336.892 232.03C335.896 233.122 334.66 233.968 333.184 234.568C331.708 235.168 330.154 235.468 328.522 235.468ZM363.509 209.8L363.077 212.824H354.689L351.593 235H348.569L351.665 212.824H343.313L343.727 209.8H363.509ZM372.366 209.8H376.02L381.654 235H378.45L377.28 229.852H365.49L362.898 235H359.676L372.366 209.8ZM367.02 226.828H376.596L373.644 213.67L367.02 226.828ZM384.935 235L388.463 209.8H397.319C398.663 209.8 399.833 210.13 400.829 210.79C401.825 211.45 402.563 212.344 403.043 213.472C403.523 214.588 403.667 215.836 403.475 217.216C403.319 218.428 402.929 219.532 402.305 220.528C401.681 221.524 400.901 222.358 399.965 223.03C399.041 223.69 398.027 224.146 396.923 224.398L401.585 235H398.093L393.539 224.65H389.399L387.959 235H384.935ZM389.831 221.626H395.357C396.173 221.626 396.947 221.428 397.679 221.032C398.423 220.624 399.047 220.078 399.551 219.394C400.055 218.698 400.367 217.918 400.487 217.054C400.619 216.178 400.529 215.398 400.217 214.714C399.905 214.018 399.437 213.472 398.813 213.076C398.189 212.668 397.469 212.464 396.653 212.464H391.127L389.831 221.626ZM427.564 209.8L427.132 212.824H418.744L415.648 235H412.624L415.72 212.824H407.368L407.782 209.8H427.564ZM440.168 235L446.846 225.712C445.55 226.084 444.302 226.15 443.102 225.91C441.914 225.658 440.87 225.166 439.97 224.434C439.082 223.69 438.422 222.754 437.99 221.626C437.558 220.498 437.438 219.244 437.63 217.864C437.786 216.688 438.158 215.584 438.746 214.552C439.334 213.52 440.072 212.614 440.96 211.834C441.848 211.054 442.838 210.442 443.93 209.998C445.022 209.554 446.156 209.332 447.332 209.332C448.892 209.332 450.26 209.716 451.436 210.484C452.612 211.252 453.494 212.284 454.082 213.58C454.67 214.864 454.856 216.292 454.64 217.864C454.52 218.716 454.304 219.472 453.992 220.132C453.692 220.78 453.284 221.488 452.768 222.256L443.66 235H440.168ZM445.334 223.354C446.39 223.354 447.368 223.102 448.268 222.598C449.18 222.082 449.936 221.404 450.536 220.564C451.136 219.724 451.502 218.824 451.634 217.864C451.778 216.82 451.652 215.884 451.256 215.056C450.86 214.216 450.278 213.556 449.51 213.076C448.754 212.584 447.89 212.338 446.918 212.338C445.85 212.338 444.86 212.596 443.948 213.112C443.048 213.628 442.298 214.312 441.698 215.164C441.11 216.004 440.744 216.904 440.6 217.864C440.468 218.872 440.588 219.796 440.96 220.636C441.332 221.464 441.896 222.124 442.652 222.616C443.42 223.108 444.314 223.354 445.334 223.354ZM458.447 220.312C457.991 220.312 457.625 220.15 457.349 219.826C457.073 219.502 456.965 219.106 457.025 218.638C457.097 218.194 457.313 217.81 457.673 217.486C458.033 217.162 458.441 217 458.897 217C459.365 217 459.737 217.162 460.013 217.486C460.301 217.81 460.415 218.194 460.354 218.638C460.283 219.106 460.061 219.502 459.688 219.826C459.329 220.15 458.915 220.312 458.447 220.312ZM456.305 235.468C455.849 235.468 455.483 235.306 455.207 234.982C454.942 234.658 454.84 234.262 454.9 233.794C454.96 233.35 455.171 232.966 455.531 232.642C455.903 232.318 456.323 232.156 456.791 232.156C457.259 232.156 457.631 232.318 457.907 232.642C458.183 232.966 458.285 233.35 458.213 233.794C458.153 234.262 457.937 234.658 457.565 234.982C457.193 235.306 456.773 235.468 456.305 235.468ZM470.934 235.468C469.434 235.468 468.132 235.132 467.028 234.46C465.936 233.776 465.048 232.834 464.364 231.634C463.692 230.434 463.242 229.048 463.014 227.476C462.798 225.892 462.816 224.2 463.068 222.4C463.32 220.6 463.776 218.908 464.436 217.324C465.108 215.74 465.954 214.354 466.974 213.166C467.994 211.966 469.146 211.03 470.43 210.358C471.714 209.674 473.106 209.332 474.606 209.332C476.094 209.332 477.384 209.674 478.476 210.358C479.58 211.03 480.462 211.966 481.122 213.166C481.794 214.354 482.244 215.74 482.472 217.324C482.7 218.908 482.688 220.6 482.436 222.4C482.184 224.2 481.722 225.892 481.05 227.476C480.378 229.048 479.538 230.434 478.53 231.634C477.534 232.834 476.388 233.776 475.092 234.46C473.808 235.132 472.422 235.468 470.934 235.468ZM471.348 232.444C472.86 232.444 474.186 231.982 475.326 231.058C476.466 230.122 477.396 228.892 478.116 227.368C478.836 225.844 479.322 224.188 479.574 222.4C479.85 220.516 479.832 218.818 479.52 217.306C479.208 215.782 478.602 214.576 477.702 213.688C476.814 212.8 475.638 212.356 474.174 212.356C473.022 212.356 471.978 212.626 471.042 213.166C470.118 213.706 469.302 214.444 468.594 215.38C467.898 216.316 467.328 217.39 466.884 218.602C466.44 219.802 466.122 221.068 465.93 222.4C465.678 224.188 465.702 225.85 466.002 227.386C466.302 228.91 466.89 230.134 467.766 231.058C468.654 231.982 469.848 232.444 471.348 232.444ZM491.958 235.468C490.458 235.468 489.156 235.132 488.052 234.46C486.96 233.776 486.072 232.834 485.388 231.634C484.716 230.434 484.266 229.048 484.038 227.476C483.822 225.892 483.84 224.2 484.092 222.4C484.344 220.6 484.8 218.908 485.46 217.324C486.132 215.74 486.978 214.354 487.998 213.166C489.018 211.966 490.17 211.03 491.454 210.358C492.738 209.674 494.13 209.332 495.63 209.332C497.118 209.332 498.408 209.674 499.5 210.358C500.604 211.03 501.486 211.966 502.146 213.166C502.818 214.354 503.268 215.74 503.496 217.324C503.724 218.908 503.712 220.6 503.46 222.4C503.208 224.2 502.746 225.892 502.074 227.476C501.402 229.048 500.562 230.434 499.554 231.634C498.558 232.834 497.412 233.776 496.116 234.46C494.832 235.132 493.446 235.468 491.958 235.468ZM492.372 232.444C493.884 232.444 495.21 231.982 496.35 231.058C497.49 230.122 498.42 228.892 499.14 227.368C499.86 225.844 500.346 224.188 500.598 222.4C500.874 220.516 500.856 218.818 500.544 217.306C500.232 215.782 499.626 214.576 498.726 213.688C497.838 212.8 496.662 212.356 495.198 212.356C494.046 212.356 493.002 212.626 492.066 213.166C491.142 213.706 490.326 214.444 489.618 215.38C488.922 216.316 488.352 217.39 487.908 218.602C487.464 219.802 487.146 221.068 486.954 222.4C486.702 224.188 486.726 225.85 487.026 227.386C487.326 228.91 487.914 230.134 488.79 231.058C489.678 231.982 490.872 232.444 492.372 232.444Z" fill="#FFF0CE"/>
<defs>
<filter id="filter0_d_6_3" x="-23" y="0" width="973" height="140" filterUnits="userSpaceOnUse" color-interpolation-filters="sRGB">
<feFlood flood-opacity="0" result="BackgroundImageFix"/>
<feColorMatrix in="SourceAlpha" type="matrix" values="0 0 0 0 0 0 0 0 0 0 0 0 0 0 0 0 0 0 127 0" result="hardAlpha"/>
<feOffset dx="-12" dy="12"/>
<feGaussianBlur stdDeviation="5.5"/>
<feComposite in2="hardAlpha" operator="out"/>
<feColorMatrix type="matrix" values="0 0 0 0 0 0 0 0 0 0 0 0 0 0 0 0 0 0 0.3 0"/>
<feBlend mode="normal" in2="BackgroundImageFix" result="effect1_dropShadow_6_3"/>
<feBlend mode="normal" in="SourceGraphic" in2="effect1_dropShadow_6_3" result="shape"/>
</filter>
<filter id="filter1_d_6_3" x="-23" y="164" width="620" height="140" filterUnits="userSpaceOnUse" color-interpolation-filters="sRGB">
<feFlood flood-opacity="0" result="BackgroundImageFix"/>
<feColorMatrix in="SourceAlpha" type="matrix" values="0 0 0 0 0 0 0 0 0 0 0 0 0 0 0 0 0 0 127 0" result="hardAlpha"/>
<feOffset dx="-12" dy="12"/>
<feGaussianBlur stdDeviation="5.5"/>
<feComposite in2="hardAlpha" operator="out"/>
<feColorMatrix type="matrix" values="0 0 0 0 0 0 0 0 0 0 0 0 0 0 0 0 0 0 0.3 0"/>
<feBlend mode="normal" in2="BackgroundImageFix" result="effect1_dropShadow_6_3"/>
<feBlend mode="normal" in="SourceGraphic" in2="effect1_dropShadow_6_3" result="shape"/>
</filter>
</defs>
</svg>
