<svg width="934" height="153" viewBox="0 0 934 153" fill="none" xmlns="http://www.w3.org/2000/svg">
<g filter="url(#filter0_d_10_57)">
<path d="M82.328 51.5168L93.56 17.9168H99.704L104.456 37.7408L114.776 17.9168H120.92L122.744 51.5168H115.4L114.44 33.3728L105.032 51.5168H100.04L95.72 33.3728L89.672 51.5168H82.328ZM128.235 51.5168L132.939 17.9168H140.139L135.435 51.5168H128.235ZM154.098 52.1408C152.21 52.1408 150.442 51.8448 148.794 51.2528C147.146 50.6448 145.754 49.7808 144.618 48.6608C143.498 47.5248 142.754 46.1728 142.386 44.6048L149.514 42.1088C149.61 42.5728 149.898 43.0208 150.378 43.4528C150.874 43.8848 151.522 44.2448 152.322 44.5328C153.138 44.8048 154.066 44.9408 155.106 44.9408C156.066 44.9408 156.986 44.8048 157.866 44.5328C158.762 44.2448 159.506 43.8528 160.098 43.3568C160.706 42.8608 161.058 42.2848 161.154 41.6288C161.25 40.9568 161.05 40.4048 160.554 39.9728C160.058 39.5248 159.402 39.1728 158.586 38.9168C157.77 38.6448 156.922 38.4448 156.042 38.3168C153.658 37.9648 151.562 37.3888 149.754 36.5888C147.946 35.7728 146.578 34.6528 145.65 33.2288C144.738 31.8048 144.434 29.9968 144.738 27.8048C145.042 25.7088 145.898 23.8768 147.306 22.3088C148.714 20.7248 150.45 19.4928 152.514 18.6128C154.578 17.7328 156.738 17.2928 158.994 17.2928C160.882 17.2928 162.65 17.5968 164.298 18.2048C165.946 18.7968 167.338 19.6608 168.474 20.7968C169.626 21.9328 170.37 23.2928 170.706 24.8768L163.578 27.3248C163.482 26.8608 163.186 26.4208 162.69 26.0048C162.21 25.5728 161.562 25.2208 160.746 24.9488C159.946 24.6768 159.026 24.5408 157.986 24.5408C157.058 24.5248 156.146 24.6608 155.25 24.9488C154.354 25.2368 153.602 25.6288 152.994 26.1248C152.386 26.6208 152.034 27.1808 151.938 27.8048C151.826 28.6688 151.994 29.3168 152.442 29.7488C152.89 30.1648 153.522 30.4608 154.338 30.6368C155.17 30.8128 156.074 30.9728 157.05 31.1168C159.306 31.4528 161.338 32.0528 163.146 32.9168C164.97 33.7808 166.362 34.9328 167.322 36.3728C168.298 37.8128 168.642 39.5648 168.354 41.6288C168.066 43.7248 167.218 45.5648 165.81 47.1488C164.418 48.7168 162.69 49.9408 160.626 50.8208C158.562 51.7008 156.386 52.1408 154.098 52.1408ZM201.441 17.9168L200.433 25.1168H190.833L187.137 51.5168H179.937L183.633 25.1168H174.033L175.041 17.9168H201.441ZM201.531 51.5168L206.235 17.9168H219.915C221.755 17.9168 223.355 18.3808 224.715 19.3088C226.075 20.2368 227.083 21.4848 227.739 23.0528C228.395 24.6048 228.587 26.3168 228.315 28.1888C228.123 29.6288 227.691 30.9728 227.019 32.2208C226.363 33.4528 225.523 34.5488 224.499 35.5088C223.491 36.4528 222.347 37.2128 221.067 37.7888L227.115 51.5168H218.811L213.051 38.4608H210.555L208.731 51.5168H201.531ZM211.563 31.2608H217.179C217.819 31.2608 218.427 31.1008 219.003 30.7808C219.579 30.4448 220.067 30.0048 220.467 29.4608C220.867 28.9168 221.107 28.3168 221.187 27.6608C221.283 27.0048 221.211 26.4048 220.971 25.8608C220.731 25.3168 220.363 24.8848 219.867 24.5648C219.387 24.2288 218.827 24.0608 218.187 24.0608H212.571L211.563 31.2608ZM230.946 51.5168L231.954 44.3168L252.066 25.1168H234.642L235.65 17.9168H262.818L261.81 25.1168L241.698 44.3168H259.122L258.114 51.5168H230.946ZM277.41 52.1408C275.138 52.1408 273.058 51.6928 271.17 50.7968C269.298 49.8848 267.714 48.6288 266.418 47.0288C265.138 45.4288 264.21 43.5808 263.634 41.4848C263.074 39.3728 262.962 37.1168 263.298 34.7168C263.634 32.3168 264.378 30.0688 265.53 27.9728C266.682 25.8608 268.13 24.0048 269.874 22.4048C271.634 20.8048 273.578 19.5568 275.706 18.6608C277.834 17.7488 280.034 17.2928 282.306 17.2928C284.594 17.2928 286.674 17.7488 288.546 18.6608C290.418 19.5568 291.994 20.8048 293.274 22.4048C294.57 24.0048 295.498 25.8608 296.058 27.9728C296.634 30.0688 296.754 32.3168 296.418 34.7168C296.082 37.1168 295.338 39.3728 294.186 41.4848C293.034 43.5808 291.578 45.4288 289.818 47.0288C288.074 48.6288 286.138 49.8848 284.01 50.7968C281.898 51.6928 279.698 52.1408 277.41 52.1408ZM278.418 44.9408C279.698 44.9408 280.938 44.6768 282.138 44.1488C283.354 43.6048 284.458 42.8688 285.45 41.9408C286.442 40.9968 287.266 39.9088 287.922 38.6768C288.594 37.4448 289.026 36.1248 289.218 34.7168C289.41 33.3088 289.346 31.9888 289.026 30.7568C288.722 29.5248 288.202 28.4448 287.466 27.5168C286.746 26.5728 285.858 25.8368 284.802 25.3088C283.746 24.7648 282.578 24.4928 281.298 24.4928C280.018 24.4928 278.77 24.7648 277.554 25.3088C276.354 25.8368 275.258 26.5728 274.266 27.5168C273.274 28.4448 272.442 29.5248 271.77 30.7568C271.114 31.9888 270.69 33.3088 270.498 34.7168C270.306 36.1248 270.362 37.4448 270.666 38.6768C270.986 39.9088 271.506 40.9968 272.226 41.9408C272.962 42.8688 273.858 43.6048 274.914 44.1488C275.97 44.6768 277.138 44.9408 278.418 44.9408ZM311.036 52.1408C309.148 52.1408 307.38 51.8448 305.732 51.2528C304.084 50.6448 302.692 49.7808 301.556 48.6608C300.436 47.5248 299.692 46.1728 299.324 44.6048L306.452 42.1088C306.548 42.5728 306.836 43.0208 307.316 43.4528C307.812 43.8848 308.46 44.2448 309.26 44.5328C310.076 44.8048 311.004 44.9408 312.044 44.9408C313.004 44.9408 313.924 44.8048 314.804 44.5328C315.7 44.2448 316.444 43.8528 317.036 43.3568C317.644 42.8608 317.996 42.2848 318.092 41.6288C318.188 40.9568 317.988 40.4048 317.492 39.9728C316.996 39.5248 316.34 39.1728 315.524 38.9168C314.708 38.6448 313.86 38.4448 312.98 38.3168C310.596 37.9648 308.5 37.3888 306.692 36.5888C304.884 35.7728 303.516 34.6528 302.588 33.2288C301.676 31.8048 301.372 29.9968 301.676 27.8048C301.98 25.7088 302.836 23.8768 304.244 22.3088C305.652 20.7248 307.388 19.4928 309.452 18.6128C311.516 17.7328 313.676 17.2928 315.932 17.2928C317.82 17.2928 319.588 17.5968 321.236 18.2048C322.884 18.7968 324.276 19.6608 325.412 20.7968C326.564 21.9328 327.308 23.2928 327.644 24.8768L320.516 27.3248C320.42 26.8608 320.124 26.4208 319.628 26.0048C319.148 25.5728 318.5 25.2208 317.684 24.9488C316.884 24.6768 315.964 24.5408 314.924 24.5408C313.996 24.5248 313.084 24.6608 312.188 24.9488C311.292 25.2368 310.54 25.6288 309.932 26.1248C309.324 26.6208 308.972 27.1808 308.876 27.8048C308.764 28.6688 308.932 29.3168 309.38 29.7488C309.828 30.1648 310.46 30.4608 311.276 30.6368C312.108 30.8128 313.012 30.9728 313.988 31.1168C316.244 31.4528 318.276 32.0528 320.084 32.9168C321.908 33.7808 323.3 34.9328 324.26 36.3728C325.236 37.8128 325.58 39.5648 325.292 41.6288C325.004 43.7248 324.156 45.5648 322.748 47.1488C321.356 48.7168 319.628 49.9408 317.564 50.8208C315.5 51.7008 313.324 52.1408 311.036 52.1408ZM358.378 17.9168L357.37 25.1168H347.77L344.074 51.5168H336.874L340.57 25.1168H330.97L331.978 17.9168H358.378ZM366.581 51.5168L362.693 17.9168H370.133L372.461 38.2688L380.501 17.9168H387.125L389.453 38.2688L397.493 17.9168H404.933L391.685 51.5168H383.573L381.557 34.0928L374.693 51.5168H366.581ZM416.92 17.9168H425.032L432.52 51.5168H424.888L423.712 46.2368H410.32L407.656 51.5168H400.024L416.92 17.9168ZM413.968 39.0368H422.08L419.56 27.9008L413.968 39.0368ZM461.036 52.1408C459.148 52.1408 457.38 51.8448 455.732 51.2528C454.084 50.6448 452.692 49.7808 451.556 48.6608C450.436 47.5248 449.692 46.1728 449.324 44.6048L456.452 42.1088C456.548 42.5728 456.836 43.0208 457.316 43.4528C457.812 43.8848 458.46 44.2448 459.26 44.5328C460.076 44.8048 461.004 44.9408 462.044 44.9408C463.004 44.9408 463.924 44.8048 464.804 44.5328C465.7 44.2448 466.444 43.8528 467.036 43.3568C467.644 42.8608 467.996 42.2848 468.092 41.6288C468.188 40.9568 467.988 40.4048 467.492 39.9728C466.996 39.5248 466.34 39.1728 465.524 38.9168C464.708 38.6448 463.86 38.4448 462.98 38.3168C460.596 37.9648 458.5 37.3888 456.692 36.5888C454.884 35.7728 453.516 34.6528 452.588 33.2288C451.676 31.8048 451.372 29.9968 451.676 27.8048C451.98 25.7088 452.836 23.8768 454.244 22.3088C455.652 20.7248 457.388 19.4928 459.452 18.6128C461.516 17.7328 463.676 17.2928 465.932 17.2928C467.82 17.2928 469.588 17.5968 471.236 18.2048C472.884 18.7968 474.276 19.6608 475.412 20.7968C476.564 21.9328 477.308 23.2928 477.644 24.8768L470.516 27.3248C470.42 26.8608 470.124 26.4208 469.628 26.0048C469.148 25.5728 468.5 25.2208 467.684 24.9488C466.884 24.6768 465.964 24.5408 464.924 24.5408C463.996 24.5248 463.084 24.6608 462.188 24.9488C461.292 25.2368 460.54 25.6288 459.932 26.1248C459.324 26.6208 458.972 27.1808 458.876 27.8048C458.764 28.6688 458.932 29.3168 459.38 29.7488C459.828 30.1648 460.46 30.4608 461.276 30.6368C462.108 30.8128 463.012 30.9728 463.988 31.1168C466.244 31.4528 468.276 32.0528 470.084 32.9168C471.908 33.7808 473.3 34.9328 474.26 36.3728C475.236 37.8128 475.58 39.5648 475.292 41.6288C475.004 43.7248 474.156 45.5648 472.748 47.1488C471.356 48.7168 469.628 49.9408 467.564 50.8208C465.5 51.7008 463.324 52.1408 461.036 52.1408ZM464.3 15.2768L467.18 8.36484H474.38L469.1 15.2768H464.3ZM479.172 51.5168L483.876 17.9168H491.076L487.38 44.3168H500.58L499.572 51.5168H479.172ZM519.576 17.9168H527.688L535.176 51.5168H527.544L526.368 46.2368H512.976L510.312 51.5168H502.68L519.576 17.9168ZM516.624 39.0368H524.736L522.216 27.9008L516.624 39.0368ZM530.568 62.9408C529.288 62.9408 528.216 62.6368 527.352 62.0288C526.488 61.4208 525.864 60.6288 525.48 59.6528C525.112 58.6768 525 57.6528 525.144 56.5808C525.256 55.7808 525.512 54.9968 525.912 54.2288C526.328 53.4768 526.896 52.7808 527.616 52.1408L532.224 48.1088L535.152 51.5168C534.656 51.9488 534.136 52.3888 533.592 52.8368C533.064 53.2848 532.56 53.7328 532.08 54.1808C531.616 54.6448 531.224 55.1008 530.904 55.5488C530.584 55.9968 530.392 56.4368 530.328 56.8688C530.28 57.2208 530.36 57.5408 530.568 57.8288C530.776 58.1168 531.088 58.2608 531.504 58.2608C532.112 58.2608 532.656 58.0448 533.136 57.6128C533.632 57.1808 533.92 56.6608 534 56.0528H538.416C538.256 57.2688 537.8 58.3968 537.048 59.4368C536.296 60.4928 535.352 61.3408 534.216 61.9808C533.096 62.6208 531.88 62.9408 530.568 62.9408ZM549.254 52.1408C547.366 52.1408 545.598 51.8448 543.95 51.2528C542.302 50.6448 540.91 49.7808 539.774 48.6608C538.654 47.5248 537.91 46.1728 537.542 44.6048L544.67 42.1088C544.766 42.5728 545.054 43.0208 545.534 43.4528C546.03 43.8848 546.678 44.2448 547.478 44.5328C548.294 44.8048 549.222 44.9408 550.262 44.9408C551.222 44.9408 552.142 44.8048 553.022 44.5328C553.918 44.2448 554.662 43.8528 555.254 43.3568C555.862 42.8608 556.214 42.2848 556.31 41.6288C556.406 40.9568 556.206 40.4048 555.71 39.9728C555.214 39.5248 554.558 39.1728 553.742 38.9168C552.926 38.6448 552.078 38.4448 551.198 38.3168C548.814 37.9648 546.718 37.3888 544.91 36.5888C543.102 35.7728 541.734 34.6528 540.806 33.2288C539.894 31.8048 539.59 29.9968 539.894 27.8048C540.198 25.7088 541.054 23.8768 542.462 22.3088C543.87 20.7248 545.606 19.4928 547.67 18.6128C549.734 17.7328 551.894 17.2928 554.15 17.2928C556.038 17.2928 557.806 17.5968 559.454 18.2048C561.102 18.7968 562.494 19.6608 563.63 20.7968C564.782 21.9328 565.526 23.2928 565.862 24.8768L558.734 27.3248C558.638 26.8608 558.342 26.4208 557.846 26.0048C557.366 25.5728 556.718 25.2208 555.902 24.9488C555.102 24.6768 554.182 24.5408 553.142 24.5408C552.214 24.5248 551.302 24.6608 550.406 24.9488C549.51 25.2368 548.758 25.6288 548.15 26.1248C547.542 26.6208 547.19 27.1808 547.094 27.8048C546.982 28.6688 547.15 29.3168 547.598 29.7488C548.046 30.1648 548.678 30.4608 549.494 30.6368C550.326 30.8128 551.23 30.9728 552.206 31.1168C554.462 31.4528 556.494 32.0528 558.302 32.9168C560.126 33.7808 561.518 34.9328 562.478 36.3728C563.454 37.8128 563.798 39.5648 563.51 41.6288C563.222 43.7248 562.374 45.5648 560.966 47.1488C559.574 48.7168 557.846 49.9408 555.782 50.8208C553.718 51.7008 551.542 52.1408 549.254 52.1408ZM593.55 51.5168H584.142L577.254 39.3728L576.126 40.5248L574.59 51.5168H567.39L572.094 17.9168H579.294L577.686 29.3408L588.846 17.9168H598.254L582.75 33.7568L593.55 51.5168ZM612.155 17.9168H620.267L627.755 51.5168H620.123L618.947 46.2368H605.555L602.891 51.5168H595.259L612.155 17.9168ZM609.203 39.0368H617.315L614.795 27.9008L609.203 39.0368ZM660.014 17.9168H668.126L675.614 51.5168H667.982L666.806 46.2368H653.414L650.75 51.5168H643.118L660.014 17.9168ZM657.062 39.0368H665.174L662.654 27.9008L657.062 39.0368ZM678.484 51.5168L689.716 17.9168H695.86L700.612 37.7408L710.932 17.9168H717.076L718.9 51.5168H711.556L710.596 33.3728L701.188 51.5168H696.196L691.876 33.3728L685.828 51.5168H678.484ZM737.733 17.9168H745.845L753.333 51.5168H745.701L744.525 46.2368H731.133L728.469 51.5168H720.837L737.733 17.9168ZM734.781 39.0368H742.893L740.373 27.9008L734.781 39.0368ZM783.441 17.9168L782.433 25.1168H772.833L769.137 51.5168H761.937L765.633 25.1168H756.033L757.041 17.9168H783.441ZM797.113 52.1408C794.841 52.1408 792.761 51.6928 790.873 50.7968C789.001 49.8848 787.417 48.6288 786.121 47.0288C784.841 45.4288 783.913 43.5808 783.337 41.4848C782.777 39.3728 782.665 37.1168 783.001 34.7168C783.337 32.3168 784.081 30.0688 785.233 27.9728C786.385 25.8608 787.833 24.0048 789.577 22.4048C791.337 20.8048 793.281 19.5568 795.409 18.6608C797.537 17.7488 799.737 17.2928 802.009 17.2928C804.297 17.2928 806.377 17.7488 808.249 18.6608C810.121 19.5568 811.697 20.8048 812.977 22.4048C814.273 24.0048 815.201 25.8608 815.761 27.9728C816.337 30.0688 816.457 32.3168 816.121 34.7168C815.785 37.1168 815.041 39.3728 813.889 41.4848C812.737 43.5808 811.281 45.4288 809.521 47.0288C807.777 48.6288 805.841 49.8848 803.713 50.7968C801.601 51.6928 799.401 52.1408 797.113 52.1408ZM798.121 44.9408C799.401 44.9408 800.641 44.6768 801.841 44.1488C803.057 43.6048 804.161 42.8688 805.153 41.9408C806.145 40.9968 806.969 39.9088 807.625 38.6768C808.297 37.4448 808.729 36.1248 808.921 34.7168C809.113 33.3088 809.049 31.9888 808.729 30.7568C808.425 29.5248 807.905 28.4448 807.169 27.5168C806.449 26.5728 805.561 25.8368 804.505 25.3088C803.449 24.7648 802.281 24.4928 801.001 24.4928C799.721 24.4928 798.473 24.7648 797.257 25.3088C796.057 25.8368 794.961 26.5728 793.969 27.5168C792.977 28.4448 792.145 29.5248 791.473 30.7568C790.817 31.9888 790.393 33.3088 790.201 34.7168C790.009 36.1248 790.065 37.4448 790.369 38.6768C790.689 39.9088 791.209 40.9968 791.929 41.9408C792.665 42.8688 793.561 43.6048 794.617 44.1488C795.673 44.6768 796.841 44.9408 798.121 44.9408ZM817.844 51.5168L822.548 17.9168H836.228C838.068 17.9168 839.668 18.3808 841.028 19.3088C842.388 20.2368 843.396 21.4848 844.052 23.0528C844.708 24.6048 844.9 26.3168 844.628 28.1888C844.436 29.6288 844.004 30.9728 843.332 32.2208C842.676 33.4528 841.836 34.5488 840.812 35.5088C839.804 36.4528 838.66 37.2128 837.38 37.7888L843.428 51.5168H835.124L829.364 38.4608H826.868L825.044 51.5168H817.844ZM827.876 31.2608H833.492C834.132 31.2608 834.74 31.1008 835.316 30.7808C835.892 30.4448 836.38 30.0048 836.78 29.4608C837.18 28.9168 837.42 28.3168 837.5 27.6608C837.596 27.0048 837.524 26.4048 837.284 25.8608C837.044 25.3168 836.676 24.8848 836.18 24.5648C835.7 24.2288 835.14 24.0608 834.5 24.0608H828.884L827.876 31.2608ZM861.801 52.1408C859.529 52.1408 857.449 51.6928 855.561 50.7968C853.689 49.8848 852.105 48.6288 850.809 47.0288C849.529 45.4288 848.601 43.5808 848.025 41.4848C847.465 39.3728 847.353 37.1168 847.689 34.7168C848.025 32.3168 848.769 30.0688 849.921 27.9728C851.073 25.8608 852.521 24.0048 854.265 22.4048C856.025 20.8048 857.969 19.5568 860.097 18.6608C862.225 17.7488 864.425 17.2928 866.697 17.2928C868.985 17.2928 871.065 17.7488 872.937 18.6608C874.809 19.5568 876.385 20.8048 877.665 22.4048C878.961 24.0048 879.889 25.8608 880.449 27.9728C881.025 30.0688 881.145 32.3168 880.809 34.7168C880.473 37.1168 879.729 39.3728 878.577 41.4848C877.425 43.5808 875.969 45.4288 874.209 47.0288C872.465 48.6288 870.529 49.8848 868.401 50.7968C866.289 51.6928 864.089 52.1408 861.801 52.1408ZM862.809 44.9408C864.089 44.9408 865.329 44.6768 866.529 44.1488C867.745 43.6048 868.849 42.8688 869.841 41.9408C870.833 40.9968 871.657 39.9088 872.313 38.6768C872.985 37.4448 873.417 36.1248 873.609 34.7168C873.801 33.3088 873.737 31.9888 873.417 30.7568C873.113 29.5248 872.593 28.4448 871.857 27.5168C871.137 26.5728 870.249 25.8368 869.193 25.3088C868.137 24.7648 866.969 24.4928 865.689 24.4928C864.409 24.4928 863.161 24.7648 861.945 25.3088C860.745 25.8368 859.649 26.5728 858.657 27.5168C857.665 28.4448 856.833 29.5248 856.161 30.7568C855.505 31.9888 855.081 33.3088 854.889 34.7168C854.697 36.1248 854.753 37.4448 855.057 38.6768C855.377 39.9088 855.897 40.9968 856.617 41.9408C857.353 42.8688 858.249 43.6048 859.305 44.1488C860.361 44.6768 861.529 44.9408 862.809 44.9408ZM865.065 15.2768L867.945 8.36484H875.145L869.865 15.2768H865.065ZM889.424 51.5168L885.536 17.9168H892.976L895.304 38.2688L903.344 17.9168H909.968L912.296 38.2688L920.336 17.9168H927.776L914.528 51.5168H906.416L904.4 34.0928L897.536 51.5168H889.424ZM99.08 126.517L91.304 59.3168H106.184L110.84 100.021L126.92 59.3168H140.168L144.824 100.021L160.904 59.3168H175.784L149.288 126.517H133.064L129.032 91.6688L115.304 126.517H99.08ZM200.043 126.517L209.451 59.3168H234.891C238.571 59.3168 241.787 60.0848 244.539 61.6208C247.323 63.1248 249.387 65.2688 250.731 68.0528C252.107 70.8368 252.523 74.1008 251.979 77.8448C251.787 79.2528 251.403 80.7408 250.827 82.3088C250.283 83.8448 249.467 85.2848 248.379 86.6288C247.291 87.9728 245.851 89.0288 244.059 89.7968C246.139 90.3088 247.707 91.2688 248.763 92.6768C249.819 94.0848 250.523 95.7168 250.875 97.5728C251.259 99.3968 251.403 101.253 251.307 103.141C251.243 104.997 251.099 106.677 250.875 108.181C250.427 111.573 249.083 114.661 246.843 117.445C244.635 120.197 241.883 122.405 238.587 124.069C235.291 125.701 231.787 126.517 228.075 126.517H200.043ZM216.123 114.325H228.219C229.883 114.325 231.451 113.941 232.923 113.173C234.427 112.373 235.675 111.285 236.667 109.909C237.691 108.533 238.315 106.965 238.539 105.205C238.763 103.733 238.555 102.341 237.915 101.029C237.275 99.6848 236.331 98.5968 235.083 97.7648C233.835 96.9328 232.379 96.5168 230.715 96.5168H218.619L216.123 114.325ZM220.347 84.5168H229.659C231.579 84.5168 233.307 83.8768 234.843 82.5968C236.411 81.3168 237.323 79.7008 237.579 77.7488C237.867 75.7648 237.387 74.2448 236.139 73.1888C234.923 72.1328 233.355 71.6048 231.435 71.6048H222.123L220.347 84.5168ZM284.978 59.3168H301.202L316.178 126.517H300.914L298.562 115.957H271.778L266.45 126.517H251.186L284.978 59.3168ZM279.074 101.557H295.298L290.258 79.2848L279.074 101.557ZM323.793 126.517L333.201 59.3168H355.473C360.113 59.3168 364.337 60.1968 368.145 61.9568C371.953 63.6848 375.185 66.1008 377.841 69.2048C380.497 72.2768 382.401 75.8448 383.553 79.9088C384.737 83.9408 385.009 88.2768 384.369 92.9168C383.729 97.5568 382.241 101.909 379.905 105.973C377.601 110.005 374.689 113.573 371.169 116.677C367.681 119.749 363.777 122.165 359.457 123.925C355.169 125.653 350.705 126.517 346.065 126.517H323.793ZM340.209 112.117H348.081C350.673 112.117 353.185 111.621 355.617 110.629C358.081 109.637 360.321 108.261 362.337 106.501C364.385 104.741 366.065 102.709 367.377 100.405C368.721 98.0688 369.585 95.5728 369.969 92.9168C370.353 90.2608 370.193 87.7808 369.489 85.4768C368.817 83.1728 367.713 81.1408 366.177 79.3808C364.673 77.5888 362.833 76.1968 360.657 75.2048C358.481 74.2128 356.081 73.7168 353.457 73.7168H345.585L340.209 112.117ZM383.981 126.517L406.445 59.3168H418.733L428.237 98.9648L448.877 59.3168H461.165L464.813 126.517H450.125L448.205 90.2288L429.389 126.517H419.405L410.765 90.2288L398.669 126.517H383.981ZM475.796 126.517L485.204 59.3168H499.604L490.196 126.517H475.796ZM503.137 126.517L512.545 59.3168H528.097L546.913 100.501L552.673 59.3168H567.073L557.665 126.517H542.113L523.297 85.3328L517.537 126.517H503.137ZM629.519 59.3168L627.503 73.7168H608.303L600.911 126.517H586.511L593.903 73.7168H574.703L576.719 59.3168H629.519ZM656.864 127.765C652.32 127.765 648.16 126.869 644.384 125.077C640.64 123.253 637.472 120.741 634.88 117.541C632.32 114.341 630.464 110.645 629.312 106.453C628.192 102.229 627.968 97.7168 628.64 92.9168C629.312 88.1168 630.8 83.6208 633.104 79.4288C635.408 75.2048 638.304 71.4928 641.792 68.2928C645.312 65.0928 649.2 62.5968 653.456 60.8048C657.712 58.9808 662.112 58.0688 666.656 58.0688C671.232 58.0688 675.392 58.9808 679.136 60.8048C682.88 62.5968 686.032 65.0928 688.592 68.2928C691.184 71.4928 693.04 75.2048 694.16 79.4288C695.312 83.6208 695.552 88.1168 694.88 92.9168C694.208 97.7168 692.72 102.229 690.416 106.453C688.112 110.645 685.2 114.341 681.68 117.541C678.192 120.741 674.32 123.253 670.064 125.077C665.84 126.869 661.44 127.765 656.864 127.765ZM658.88 113.365C661.44 113.365 663.92 112.837 666.32 111.781C668.752 110.693 670.96 109.221 672.944 107.365C674.928 105.477 676.576 103.301 677.888 100.837C679.232 98.3728 680.096 95.7328 680.48 92.9168C680.864 90.1008 680.736 87.4608 680.096 84.9968C679.488 82.5328 678.448 80.3728 676.976 78.5168C675.536 76.6288 673.76 75.1568 671.648 74.1008C669.536 73.0128 667.2 72.4688 664.64 72.4688C662.08 72.4688 659.584 73.0128 657.152 74.1008C654.752 75.1568 652.56 76.6288 650.576 78.5168C648.592 80.3728 646.928 82.5328 645.584 84.9968C644.272 87.4608 643.424 90.1008 643.04 92.9168C642.656 95.7328 642.768 98.3728 643.376 100.837C644.016 103.301 645.056 105.477 646.496 107.365C647.968 109.221 649.76 110.693 651.872 111.781C653.984 112.837 656.32 113.365 658.88 113.365ZM698.325 126.517L707.733 59.3168H723.285L742.101 100.501L747.861 59.3168H762.261L752.853 126.517H737.301L718.485 85.3328L712.725 126.517H698.325ZM765.858 126.517L775.266 59.3168H789.666L780.258 126.517H765.858ZM793.2 126.517L802.608 59.3168H845.424L843.408 73.7168H814.992L813.648 83.3168H835.536L833.52 97.7168H811.632L809.616 112.117H838.032L836.016 126.517H793.2Z" fill="#FFD717"/>
</g>
<g filter="url(#filter1_d_10_57)">
<path d="M23.16 130L38.84 18H62.84L47.16 130H23.16Z" fill="#FFD717"/>
</g>
<defs>
<filter id="filter0_d_10_57" x="59.328" y="8.36487" width="868.448" height="142.4" filterUnits="userSpaceOnUse" color-interpolation-filters="sRGB">
<feFlood flood-opacity="0" result="BackgroundImageFix"/>
<feColorMatrix in="SourceAlpha" type="matrix" values="0 0 0 0 0 0 0 0 0 0 0 0 0 0 0 0 0 0 127 0" result="hardAlpha"/>
<feOffset dx="-12" dy="12"/>
<feGaussianBlur stdDeviation="5.5"/>
<feComposite in2="hardAlpha" operator="out"/>
<feColorMatrix type="matrix" values="0 0 0 0 0 0 0 0 0 0 0 0 0 0 0 0 0 0 0.25 0"/>
<feBlend mode="normal" in2="BackgroundImageFix" result="effect1_dropShadow_10_57"/>
<feBlend mode="normal" in="SourceGraphic" in2="effect1_dropShadow_10_57" result="shape"/>
</filter>
<filter id="filter1_d_10_57" x="0.160004" y="18" width="62.68" height="135" filterUnits="userSpaceOnUse" color-interpolation-filters="sRGB">
<feFlood flood-opacity="0" result="BackgroundImageFix"/>
<feColorMatrix in="SourceAlpha" type="matrix" values="0 0 0 0 0 0 0 0 0 0 0 0 0 0 0 0 0 0 127 0" result="hardAlpha"/>
<feOffset dx="-12" dy="12"/>
<feGaussianBlur stdDeviation="5.5"/>
<feComposite in2="hardAlpha" operator="out"/>
<feColorMatrix type="matrix" values="0 0 0 0 0 0 0 0 0 0 0 0 0 0 0 0 0 0 0.25 0"/>
<feBlend mode="normal" in2="BackgroundImageFix" result="effect1_dropShadow_10_57"/>
<feBlend mode="normal" in="SourceGraphic" in2="effect1_dropShadow_10_57" result="shape"/>
</filter>
</defs>
</svg>
