<svg width="169" height="62" viewBox="0 0 169 62" fill="none" xmlns="http://www.w3.org/2000/svg">
<path d="M12.776 30.16C11.304 30.16 9.896 29.904 8.552 29.392C7.22933 28.8587 6.056 28.0907 5.032 27.088C4.008 26.064 3.19733 24.8373 2.6 23.408C2.024 21.9573 1.736 20.304 1.736 18.448C1.736 16.848 2.03467 15.3653 2.632 14C3.22933 12.6347 4.05067 11.44 5.096 10.416C6.16267 9.37067 7.4 8.56 8.808 7.984C10.216 7.408 11.7413 7.12 13.384 7.12C15.432 7.12 17.288 7.568 18.952 8.464C20.616 9.33867 21.8533 10.544 22.664 12.08L18.024 15.632C17.576 14.736 16.904 14.0213 16.008 13.488C15.112 12.9333 14.1627 12.656 13.16 12.656C12.4133 12.656 11.7307 12.8053 11.112 13.104C10.4933 13.4027 9.94933 13.8187 9.48 14.352C9.032 14.8853 8.68 15.5253 8.424 16.272C8.18933 16.9973 8.072 17.7973 8.072 18.672C8.072 19.568 8.2 20.3787 8.456 21.104C8.712 21.8293 9.064 22.4587 9.512 22.992C9.98133 23.504 10.536 23.9093 11.176 24.208C11.816 24.4853 12.5307 24.624 13.32 24.624C14.3227 24.624 15.2827 24.3787 16.2 23.888C17.1173 23.376 17.9493 22.6613 18.696 21.744V27.824C16.9893 29.3813 15.016 30.16 12.776 30.16ZM18.376 22.384H14.184V17.904H23.528V30H18.376V22.384ZM26.2882 30V7.28H32.5282V24.56H42.8322V30H26.2882ZM44.687 30V7.28H50.927V30H44.687ZM61.6592 7.28H67.3872L69.4672 14.288L71.5792 7.28H77.3072L73.4672 18.128L75.0992 22.768L79.9952 7.28H86.7792L78.2032 30H72.7952L69.4672 21.872L66.1712 30H60.7632L52.1872 7.28H58.9392L63.8672 22.768L65.4352 18.128L61.6592 7.28ZM88.0157 30V7.28H94.2557V30H88.0157ZM96.604 18.448C96.604 17.0613 96.86 15.7067 97.372 14.384C97.9053 13.04 98.6733 11.824 99.676 10.736C100.679 9.648 101.895 8.784 103.324 8.144C104.775 7.48267 106.407 7.152 108.22 7.152C110.396 7.152 112.295 7.61067 113.916 8.528C115.537 9.424 116.743 10.6187 117.532 12.112L112.764 15.504C112.487 14.7573 112.081 14.1813 111.548 13.776C111.036 13.3707 110.471 13.0933 109.852 12.944C109.255 12.7733 108.668 12.688 108.092 12.688C107.196 12.688 106.417 12.8693 105.756 13.232C105.116 13.5733 104.583 14.032 104.156 14.608C103.751 15.184 103.441 15.824 103.228 16.528C103.036 17.232 102.94 17.936 102.94 18.64C102.94 19.4293 103.057 20.1867 103.292 20.912C103.527 21.6373 103.868 22.288 104.316 22.864C104.764 23.4187 105.308 23.856 105.948 24.176C106.609 24.496 107.345 24.656 108.156 24.656C108.732 24.656 109.319 24.5707 109.916 24.4C110.513 24.208 111.057 23.9093 111.548 23.504C112.039 23.0987 112.412 22.5547 112.668 21.872L117.756 24.912C117.308 26.0213 116.561 26.9707 115.516 27.76C114.471 28.5493 113.287 29.1573 111.964 29.584C110.641 29.9893 109.329 30.192 108.028 30.192C106.343 30.192 104.796 29.8613 103.388 29.2C102.001 28.5173 100.796 27.6213 99.772 26.512C98.7693 25.3813 97.9907 24.1227 97.436 22.736C96.8813 21.328 96.604 19.8987 96.604 18.448ZM119.657 30V7.28H125.897V15.92L132.809 7.28H139.849L131.593 17.456L140.425 30H133.257L127.625 21.648L125.897 23.44V30H119.657ZM141.431 30V7.28H147.671V30H141.431ZM167.459 24.56V30H151.267V7.28H167.171V12.72H157.507V15.92H165.763V20.976H157.507V24.56H167.459Z" fill="#EC3A27"/>
<path d="M1.952 55V32.28H11.744C12.8533 32.28 13.8773 32.504 14.816 32.952C15.7547 33.4 16.5653 34.008 17.248 34.776C17.9307 35.5227 18.4533 36.3653 18.816 37.304C19.2 38.2427 19.392 39.192 19.392 40.152C19.392 41.496 19.072 42.7653 18.432 43.96C17.8133 45.1547 16.9387 46.136 15.808 46.904C14.6987 47.6507 13.3973 48.024 11.904 48.024H8.192V55H1.952ZM8.192 42.584H11.488C11.744 42.584 11.9893 42.5093 12.224 42.36C12.4587 42.2107 12.6507 41.9547 12.8 41.592C12.9707 41.2293 13.056 40.7493 13.056 40.152C13.056 39.512 12.96 39.0213 12.768 38.68C12.5973 38.3173 12.3733 38.072 12.096 37.944C11.84 37.7947 11.584 37.72 11.328 37.72H8.192V42.584ZM25.5525 32.28L29.6165 41.56L33.7765 32.28H40.5605L32.7205 47.48V55H26.5125V47.416L18.8005 32.28H25.5525ZM41.937 55V32.28H48.177V40.92L55.089 32.28H62.129L53.873 42.456L62.705 55H55.537L49.905 46.648L48.177 48.44V55H41.937ZM68.9587 32.28H75.9347L83.1667 55H76.8307L75.4547 50.552H69.4067L68.0627 55H61.6947L68.9587 32.28ZM74.4627 46.392L72.4467 38.392L70.3347 46.392H74.4627ZM90.9745 43.832V55H84.7345V32.28H89.5985L98.7185 43.832V32.28H104.958V55H99.9985L90.9745 43.832ZM108.539 55V32.28H114.779V40.92L121.691 32.28H128.731L120.475 42.456L129.307 55H122.139L116.507 46.648L114.779 48.44V55H108.539ZM139.178 55.192C137.45 55.192 135.882 54.872 134.474 54.232C133.066 53.5707 131.85 52.696 130.826 51.608C129.824 50.4987 129.045 49.2613 128.49 47.896C127.957 46.5093 127.69 45.08 127.69 43.608C127.69 42.0933 127.978 40.6533 128.554 39.288C129.13 37.9227 129.93 36.7067 130.954 35.64C132 34.552 133.226 33.6987 134.634 33.08C136.064 32.4613 137.621 32.152 139.306 32.152C141.034 32.152 142.602 32.4827 144.01 33.144C145.418 33.784 146.624 34.6587 147.626 35.768C148.629 36.8773 149.397 38.1253 149.93 39.512C150.485 40.8773 150.762 42.2853 150.762 43.736C150.762 45.2293 150.474 46.6587 149.898 48.024C149.344 49.3893 148.544 50.616 147.498 51.704C146.474 52.7707 145.258 53.624 143.85 54.264C142.442 54.8827 140.885 55.192 139.178 55.192ZM134.026 43.672C134.026 44.44 134.133 45.1867 134.346 45.912C134.56 46.616 134.88 47.256 135.306 47.832C135.733 48.3867 136.266 48.8347 136.906 49.176C137.568 49.496 138.346 49.656 139.242 49.656C140.138 49.656 140.917 49.4853 141.578 49.144C142.24 48.8027 142.773 48.344 143.178 47.768C143.605 47.1707 143.914 46.52 144.106 45.816C144.32 45.0907 144.426 44.3547 144.426 43.608C144.426 42.84 144.32 42.104 144.106 41.4C143.893 40.696 143.573 40.0667 143.146 39.512C142.72 38.936 142.176 38.488 141.514 38.168C140.853 37.848 140.085 37.688 139.21 37.688C138.314 37.688 137.536 37.8587 136.874 38.2C136.234 38.5413 135.701 39 135.274 39.576C134.848 40.1307 134.528 40.7707 134.314 41.496C134.122 42.2 134.026 42.9253 134.026 43.672Z" fill="#FFFCF0"/>
</svg>
